<svg xmlns="http://www.w3.org/2000/svg" viewBox="0 0 1200 600" role="img" aria-labelledby="title desc">
  <title id="title">Bundle Orders</title>
  <desc id="desc">Purple stacked bundle boxes illustration</desc>
  <defs>
    <linearGradient id="bg" x1="0" y1="0" x2="1" y2="1"><stop stop-color="#17102d"/><stop offset="1" stop-color="#080611"/></linearGradient>
    <linearGradient id="box" x1="0" y1="0" x2="1" y2="1"><stop stop-color="#c254ff"/><stop offset="1" stop-color="#6311a9"/></linearGradient>
    <filter id="shadow"><feGaussianBlur stdDeviation="20"/></filter>
  </defs>
  <rect width="1200" height="600" rx="28" fill="url(#bg)"/>
  <circle cx="990" cy="430" r="230" fill="#9c28ff" opacity=".16" filter="url(#shadow)"/>
  <path d="M0 470c240-120 360 50 560-80s370-30 640-220v430H0Z" fill="#7717bd" opacity=".15"/>
  <g transform="translate(245 95)">
    <path d="m360 32 205 112-205 112-205-112Z" fill="#da8aff" stroke="#f0caff" stroke-width="3"/>
    <path d="m155 144 205 112v228L155 370Z" fill="#6e18ad" stroke="#bb59f2" stroke-width="3"/>
    <path d="m565 144-205 112v228l205-114Z" fill="url(#box)" stroke="#d17bff" stroke-width="3"/>
    <path d="M360 256v228" stroke="#f5dfff" stroke-opacity=".7" stroke-width="5"/>
    <path d="m287 72 205 112M360 32v224" stroke="#7c22b8" stroke-opacity=".75" stroke-width="5"/>
    <text x="-24" y="550" fill="#fff" font-family="Arial,sans-serif" font-size="40" font-weight="700">BUNDLE ORDERS</text>
    <text x="54" y="586" fill="#cfa8ec" font-family="Arial,sans-serif" font-size="20" letter-spacing="4">MORE VALUE IN ONE PACKAGE</text>
  </g>
</svg>
